<mxfile host="app.diagrams.net" agent="Mozilla/5.0 (Windows NT 10.0; Win64; x64) AppleWebKit/537.36 (KHTML, like Gecko) Chrome/127.0.0.0 Safari/537.36 OPR/113.0.0.0" version="24.7.17">
  <diagram name="Page-1" id="gdyXt6v3vsUuZrMh-81j">
    <mxGraphModel dx="4600" dy="2463" grid="1" gridSize="10" guides="1" tooltips="1" connect="1" arrows="1" fold="1" page="1" pageScale="1" pageWidth="3937" pageHeight="7874" math="0" shadow="0">
      <root>
        <mxCell id="0" />
        <mxCell id="1" parent="0" />
        <mxCell id="IFWX6acOQtcKj59yUDU_-12" value="" style="rounded=1;whiteSpace=wrap;html=1;fillColor=none;" vertex="1" parent="1">
          <mxGeometry x="2040" y="2370" width="790" height="1240" as="geometry" />
        </mxCell>
        <mxCell id="hxYweo_pgfPjeb7crnxX-8" value="&lt;font style=&quot;font-size: 28px;&quot;&gt;Student&lt;/font&gt;" style="shape=umlActor;verticalLabelPosition=bottom;verticalAlign=top;html=1;outlineConnect=0;" parent="1" vertex="1">
          <mxGeometry x="420" y="2470" width="60" height="120" as="geometry" />
        </mxCell>
        <mxCell id="hxYweo_pgfPjeb7crnxX-10" value="&lt;font style=&quot;font-size: 28px;&quot;&gt;Warden&lt;/font&gt;" style="shape=umlActor;verticalLabelPosition=bottom;verticalAlign=top;html=1;outlineConnect=0;" parent="1" vertex="1">
          <mxGeometry x="410" y="2750" width="60" height="120" as="geometry" />
        </mxCell>
        <mxCell id="hxYweo_pgfPjeb7crnxX-11" value="&lt;font style=&quot;font-size: 28px;&quot;&gt;Admin&lt;/font&gt;" style="shape=umlActor;verticalLabelPosition=bottom;verticalAlign=top;html=1;outlineConnect=0;" parent="1" vertex="1">
          <mxGeometry x="410" y="3030" width="60" height="120" as="geometry" />
        </mxCell>
        <mxCell id="hxYweo_pgfPjeb7crnxX-12" value="" style="rounded=1;whiteSpace=wrap;html=1;fillColor=default;" parent="1" vertex="1">
          <mxGeometry x="960" y="2550" width="480" height="760" as="geometry" />
        </mxCell>
        <mxCell id="IFWX6acOQtcKj59yUDU_-4" value="&lt;font style=&quot;font-size: 28px;&quot;&gt;API Gateway&lt;/font&gt;" style="rounded=1;whiteSpace=wrap;html=1;" vertex="1" parent="1">
          <mxGeometry x="1570" y="2570" width="310" height="650" as="geometry" />
        </mxCell>
        <mxCell id="IFWX6acOQtcKj59yUDU_-7" value="&lt;font style=&quot;font-size: 28px;&quot;&gt;Authentication &amp;amp; Authorization Service&lt;/font&gt;" style="rounded=1;whiteSpace=wrap;html=1;" vertex="1" parent="1">
          <mxGeometry x="2230" y="2470" width="450" height="180" as="geometry" />
        </mxCell>
        <mxCell id="IFWX6acOQtcKj59yUDU_-10" value="&lt;font style=&quot;font-size: 28px;&quot;&gt;Verification Service&lt;/font&gt;" style="rounded=1;whiteSpace=wrap;html=1;" vertex="1" parent="1">
          <mxGeometry x="2230" y="2750" width="450" height="180" as="geometry" />
        </mxCell>
        <mxCell id="IFWX6acOQtcKj59yUDU_-11" value="&lt;font style=&quot;font-size: 28px;&quot;&gt;Validation Service&lt;/font&gt;" style="rounded=1;whiteSpace=wrap;html=1;" vertex="1" parent="1">
          <mxGeometry x="2230" y="3030" width="450" height="180" as="geometry" />
        </mxCell>
        <mxCell id="IFWX6acOQtcKj59yUDU_-13" value="&lt;font style=&quot;font-size: 28px;&quot;&gt;Database&lt;/font&gt;" style="shape=cylinder3;whiteSpace=wrap;html=1;boundedLbl=1;backgroundOutline=1;size=15;" vertex="1" parent="1">
          <mxGeometry x="3090" y="2430" width="460" height="430" as="geometry" />
        </mxCell>
        <mxCell id="IFWX6acOQtcKj59yUDU_-14" value="&lt;font style=&quot;font-size: 32px;&quot;&gt;Back End&lt;/font&gt;" style="text;html=1;align=center;verticalAlign=middle;resizable=0;points=[];autosize=1;strokeColor=none;fillColor=none;" vertex="1" parent="1">
          <mxGeometry x="2355" y="2330" width="160" height="50" as="geometry" />
        </mxCell>
        <mxCell id="IFWX6acOQtcKj59yUDU_-15" value="&lt;span style=&quot;font-size: 32px;&quot;&gt;Front End&lt;/span&gt;" style="text;html=1;align=center;verticalAlign=middle;resizable=0;points=[];autosize=1;strokeColor=none;fillColor=none;" vertex="1" parent="1">
          <mxGeometry x="1100" y="2490" width="160" height="50" as="geometry" />
        </mxCell>
        <mxCell id="IFWX6acOQtcKj59yUDU_-16" value="&lt;font style=&quot;font-size: 28px;&quot;&gt;3rd Party Services&lt;/font&gt;" style="ellipse;whiteSpace=wrap;html=1;aspect=fixed;" vertex="1" parent="1">
          <mxGeometry x="3170" y="3140" width="300" height="300" as="geometry" />
        </mxCell>
        <mxCell id="IFWX6acOQtcKj59yUDU_-21" value="" style="group" vertex="1" connectable="0" parent="1">
          <mxGeometry x="650" y="2750" width="230" height="180" as="geometry" />
        </mxCell>
        <mxCell id="IFWX6acOQtcKj59yUDU_-17" value="" style="outlineConnect=0;dashed=0;verticalLabelPosition=bottom;verticalAlign=top;align=center;html=1;shape=mxgraph.aws3.internet_2;fillColor=#D2D3D3;gradientColor=none;" vertex="1" parent="IFWX6acOQtcKj59yUDU_-21">
          <mxGeometry width="230" height="135.5" as="geometry" />
        </mxCell>
        <mxCell id="IFWX6acOQtcKj59yUDU_-18" value="&lt;span style=&quot;font-size: 32px;&quot;&gt;Internet&lt;/span&gt;" style="text;html=1;align=center;verticalAlign=middle;resizable=0;points=[];autosize=1;strokeColor=none;fillColor=none;" vertex="1" parent="IFWX6acOQtcKj59yUDU_-21">
          <mxGeometry x="50" y="130" width="130" height="50" as="geometry" />
        </mxCell>
        <mxCell id="IFWX6acOQtcKj59yUDU_-22" value="&lt;span style=&quot;font-size: 28px;&quot;&gt;UI Component 1&lt;/span&gt;" style="rounded=1;whiteSpace=wrap;html=1;" vertex="1" parent="1">
          <mxGeometry x="1030" y="2650" width="330" height="140" as="geometry" />
        </mxCell>
        <mxCell id="IFWX6acOQtcKj59yUDU_-23" value="&lt;span style=&quot;font-size: 28px;&quot;&gt;UI Component 2&lt;/span&gt;" style="rounded=1;whiteSpace=wrap;html=1;" vertex="1" parent="1">
          <mxGeometry x="1035" y="2825" width="330" height="140" as="geometry" />
        </mxCell>
        <mxCell id="IFWX6acOQtcKj59yUDU_-24" value="&lt;span style=&quot;font-size: 28px;&quot;&gt;UI Component n..&lt;/span&gt;" style="rounded=1;whiteSpace=wrap;html=1;" vertex="1" parent="1">
          <mxGeometry x="1030" y="3020" width="330" height="140" as="geometry" />
        </mxCell>
        <mxCell id="IFWX6acOQtcKj59yUDU_-25" value="&lt;span style=&quot;font-size: 28px;&quot;&gt;Other Backend Components&lt;/span&gt;" style="rounded=1;whiteSpace=wrap;html=1;" vertex="1" parent="1">
          <mxGeometry x="2230" y="3290" width="450" height="180" as="geometry" />
        </mxCell>
      </root>
    </mxGraphModel>
  </diagram>
</mxfile>
